<svg xmlns="http://www.w3.org/2000/svg" width="131" height="42" fill="none" viewBox="0 0 131 42"><path fill="#fff" stroke="#000" d="M.5.5H116c8.008 0 14.5 6.492 14.5 14.5v26.5H15C6.992 41.5.5 35.008.5 27z"/><path fill="#000" d="M17.96 24.158a9.446 9.446 0 0 0 11.89 0l-1.34-1.655a7.316 7.316 0 0 1-9.21 0zm1.444-3.645v-2.876h2.13v2.876zm6.608-2.876v2.876h2.13v-2.876z"/><path fill="#000" fill-rule="evenodd" d="M35 21.5C35 27.851 29.851 33 23.5 33S12 27.851 12 21.5 17.149 10 23.5 10 35 15.149 35 21.5m-2.13 0a9.37 9.37 0 1 1-18.74 0 9.37 9.37 0 0 1 18.74 0" clip-rule="evenodd"/><path fill="#000" d="M48.29 22.178q1.485 0 2.425.79.948.78.949 2.601v6.516h-2.566V26.2q0-.764-.202-1.172-.37-.746-1.406-.746-1.274 0-1.748 1.092-.246.577-.247 1.474v5.237H43v-9.658h2.416v1.411q.484-.745.914-1.074.774-.585 1.96-.586m9.27 8.122q1.099 0 1.688-.79.588-.79.588-2.245t-.588-2.237q-.589-.79-1.688-.79t-1.695.79q-.59.78-.59 2.237 0 1.455.59 2.246.597.79 1.695.79m4.903-3.035q0 2.13-1.212 3.648-1.213 1.51-3.682 1.51t-3.681-1.51q-1.213-1.518-1.213-3.648 0-2.095 1.213-3.631 1.212-1.536 3.681-1.536t3.682 1.536 1.212 3.63m.097-2.965v-1.802h1.336v-2.699h2.478v2.699h1.556V24.3h-1.556v5.113q0 .595.15.746.15.141.913.142h.238l.255-.018v1.89l-1.187.045q-1.774.063-2.425-.621-.422-.435-.422-1.34V24.3zm15.042-2.104q1.89 0 2.952 1.376 1.072 1.375 1.072 3.55 0 2.256-1.054 3.738t-2.944 1.483q-1.186 0-1.906-.48-.43-.284-.932-.994v1.216h-2.45V19.018h2.495v4.651q.474-.675 1.046-1.03.676-.443 1.722-.443m-.641 8.06q.966 0 1.502-.79.537-.79.536-2.077 0-1.03-.263-1.704-.502-1.28-1.846-1.279-1.362 0-1.871 1.252-.264.666-.264 1.722 0 1.243.545 2.06.545.816 1.66.816m6.134 3.684.316.018a4 4 0 0 0 .703-.026q.334-.045.562-.205.22-.15.404-.63.194-.48.159-.586L81.724 22.41h2.785l2.091 7.137 1.977-7.137h2.663l-3.286 9.516q-.95 2.752-1.503 3.41-.553.665-2.214.665-.334 0-.536-.009-.203 0-.606-.026zm14.688-6.8h3.286l-1.617-5.148zM97.95 19h3.058l4.586 13.085h-2.934l-.835-2.69h-4.771l-.897 2.69h-2.829zm12.64 13.085h-2.688V19h2.688z"/><path fill="#000" d="M106.306 19H112v2.226h-5.694zm0 10.862H112v2.226h-5.694zM42.975 9.896l1.02 3.97 1.035-3.97h1l1.04 3.947 1.084-3.947h.892l-1.54 5.039h-.926l-1.08-3.9-1.044 3.9h-.926L42 9.896zm6.841 0h.846v.87q.105-.253.51-.616a1.35 1.35 0 0 1 1.02-.362l.203.019v.893a1.4 1.4 0 0 0-.292-.023q-.673 0-1.035.414-.36.41-.361.946v2.898h-.891zm3.25.024h.906v5.015h-.906zm0-1.896h.906v.96h-.906zm2.334.466h.902v1.406h.846v.692h-.846v3.288q0 .263.188.353.104.052.347.052h.138q.075-.005.173-.014v.668q-.154.042-.321.06a3 3 0 0 1-.357.02q-.624 0-.846-.302-.223-.305-.223-.79v-3.335h-.718v-.692h.718zm2.722 0h.9v1.406h.847v.692h-.846v3.288q0 .263.188.353.105.052.346.052h.139q.075-.005.173-.014v.668q-.154.042-.322.06a3 3 0 0 1-.356.02q-.624 0-.847-.302-.222-.305-.223-.79v-3.335h-.717v-.692h.717zm4.75 1.293q.565 0 1.095.254.53.25.807.65.267.38.356.889.08.348.08 1.11h-3.887q.024.767.38 1.233.357.46 1.105.46.698 0 1.114-.437.237-.254.337-.588h.876q-.034.278-.233.62-.193.34-.435.556-.407.376-1.005.508a3.2 3.2 0 0 1-.728.075q-.99 0-1.679-.682-.688-.686-.688-1.92 0-1.212.693-1.97t1.812-.758m1.421 2.23q-.054-.55-.252-.88-.366-.61-1.223-.611-.615 0-1.03.423-.416.42-.44 1.068zm1.914-2.117h.847v.715q.375-.443.797-.635a2.2 2.2 0 0 1 .936-.193q1.128 0 1.525.748.218.409.218 1.172v3.232h-.907v-3.176q0-.46-.143-.743-.238-.47-.862-.47-.315 0-.52.06a1.34 1.34 0 0 0-.643.414 1.25 1.25 0 0 0-.292.518 3.4 3.4 0 0 0-.065.757v2.64h-.89zM74.402 8h.866v2.508q.292-.363.698-.55.406-.195.881-.194.99 0 1.605.65.618.644.618 1.905 0 1.195-.608 1.985-.61.79-1.689.79-.603 0-1.02-.277-.247-.164-.53-.527v.645h-.822zm2.317 6.347q.722 0 1.08-.546.36-.546.36-1.44 0-.795-.36-1.317-.358-.522-1.056-.522-.608 0-1.069.428-.456.428-.456 1.411 0 .71.189 1.153.35.833 1.312.833m6.607-4.451h.986q-.189.485-.837 2.211-.485 1.3-.812 2.117-.772 1.929-1.09 2.353-.316.423-1.089.423-.188 0-.292-.014a3 3 0 0 1-.247-.052v-.771q.232.06.336.075t.183.014q.248 0 .362-.08a.7.7 0 0 0 .198-.188q.025-.038.178-.386.154-.348.223-.518l-1.96-5.184h1.01l1.42 4.102zM87.703 8h.891v2.578q.318-.381.57-.536.43-.268 1.074-.268 1.154 0 1.565.767.222.418.223 1.162v3.232h-.916v-3.176q0-.555-.149-.814-.243-.414-.91-.414-.556 0-1.006.362-.45.363-.45 1.37v2.672h-.892zm6.435 1.896v3.345q0 .386.128.63.238.452.886.452.931 0 1.268-.79.183-.424.183-1.162V9.896h.891v5.039h-.841l.01-.744q-.174.288-.431.485-.51.395-1.238.395-1.133 0-1.545-.72-.222-.385-.222-1.03V9.896zm4.652 0h.88v.715q.318-.372.575-.541a1.8 1.8 0 0 1 1-.287q.635 0 1.02.297.218.169.396.498.297-.405.698-.597.402-.198.901-.198 1.07 0 1.456.734.208.395.208 1.063v3.355h-.926v-3.5q0-.504-.267-.692a1.08 1.08 0 0 0-.644-.188q-.525 0-.906.334-.376.333-.376 1.115v2.93h-.906v-3.288q0-.513-.129-.748-.203-.353-.758-.353-.504 0-.921.372-.41.372-.41 1.345v2.673h-.892zm9.028 3.698q0 .367.282.579.282.21.669.211.47 0 .911-.207.742-.344.742-1.124v-.682q-.163.099-.421.164-.257.066-.505.094l-.539.066q-.485.061-.728.193-.411.222-.411.706m2.159-1.713q.306-.037.411-.244a.7.7 0 0 0 .059-.325q0-.432-.327-.626-.321-.197-.926-.197-.698 0-.99.357-.164.198-.213.588h-.832q.025-.93.634-1.293.614-.367 1.421-.367.936 0 1.52.338.579.34.579 1.054v2.903q0 .131.055.212.06.08.243.08.059 0 .133-.005l.159-.024v.626a3 3 0 0 1-.317.07q-.11.015-.297.015-.46 0-.669-.31a1.2 1.2 0 0 1-.153-.466q-.273.337-.783.588-.509.249-1.123.249-.738 0-1.209-.423a1.4 1.4 0 0 1-.465-1.068q0-.702.461-1.087.46-.386 1.208-.475zm2.701-1.985h.846v.715q.377-.443.797-.635.422-.193.936-.193 1.13 0 1.525.748.218.409.218 1.172v3.232h-.906v-3.176q0-.46-.144-.743-.237-.47-.861-.47-.317 0-.52.06a1.35 1.35 0 0 0-.644.414 1.25 1.25 0 0 0-.292.518q-.064.263-.064.757v2.64h-.891z"/></svg>