<svg xmlns="http://www.w3.org/2000/svg" xml:space="preserve" style="fill-rule:evenodd;clip-rule:evenodd;stroke-linecap:round;stroke-linejoin:round;stroke-miterlimit:1.5" viewBox="0 0 500 500"><path d="M.326.708h487.456v498.668H.326z" style="fill:#fff" transform="matrix(1.02576 0 0 1.00275 -.008 -.002)"/><path d="M181.55 172.34s6.57 148.52 42.61 211.59c19.79 34.62 95 32.41 145 39.4h-170.9l-30.71-44 14-206.99Z" style="fill:#3fe2fd;fill-rule:nonzero"/><path d="M417.14 158.34H174.55c-3.84 0-7 3.16-7 7v34.87c-51.116 2.605-91.76 45.372-91.76 96.555 0 51.603 41.316 94.577 92.88 96.605 5.247 25.493 27.873 43.963 53.9 44h146.55c30.153-.049 54.951-24.847 55-55V165.34c0-3.833-3.147-6.989-6.98-7Zm-7 224c-.033 22.48-18.52 40.967-41 41H222.57c-22.48-.033-40.967-18.52-41-41v-210h228.57v210ZM89.86 296.77c.054-43.455 34.317-79.848 77.69-82.52v165c-43.356-2.676-77.61-39.042-77.69-82.48Zm256.88-158.9a7.003 7.003 0 0 0 4 1.255c3.84 0 7-3.16 7-7a7.012 7.012 0 0 0-3-5.745 28.251 28.251 0 0 1-11.6-25.71c.67-5.85 3.21-11.6 5.89-17.68 1-2.28 2.05-4.63 3-7 5.2-13 5.59-24.17 1.15-33a7.02 7.02 0 0 0-6.316-3.981c-3.84 0-7 3.16-7 7 0 1.128.273 2.241.796 3.241 2.57 5.14 2 12.41-1.64 21.59-.85 2.16-1.8 4.29-2.79 6.56-3 6.76-6.08 13.77-7 21.72-1.614 15.115 5.099 29.972 17.51 38.75Zm-53.94 0a7.003 7.003 0 0 0 4 1.255c3.84 0 7-3.16 7-7a7.012 7.012 0 0 0-3-5.745 28.237 28.237 0 0 1-11.61-25.71c.67-5.85 3.21-11.6 5.89-17.68 1-2.28 2.05-4.63 3-7 5.19-13 5.58-24.17 1.14-33a7.02 7.02 0 0 0-6.204-3.759c-3.84 0-7 3.16-7 7 0 1.045.234 2.076.684 3.019 2.57 5.14 2 12.41-1.63 21.59-.86 2.16-1.8 4.3-2.8 6.56-3 6.77-6.08 13.77-7 21.72-1.61 15.119 5.112 29.977 17.53 38.75Zm-53.94 0a7.003 7.003 0 0 0 4 1.255c3.84 0 7-3.16 7-7a7.012 7.012 0 0 0-3-5.745 28.261 28.261 0 0 1-11.61-25.71c.67-5.85 3.21-11.6 5.9-17.68 1-2.28 2-4.63 3-7 5.19-13 5.58-24.17 1.15-33a7.022 7.022 0 0 0-6.265-3.873c-3.842 0-7.003 3.161-7.003 7.003a7 7 0 0 0 .738 3.13c2.58 5.14 2 12.41-1.63 21.59-.86 2.16-1.8 4.29-2.8 6.56-3 6.76-6.08 13.77-7 21.72-1.612 15.117 5.105 29.974 17.52 38.75Z" style="fill:#251ac7;fill-rule:nonzero"/><path d="m298.814 287.174 40.887.298s32.688-64.554 16.116-91.628m-69.672 109.775s-10.246-7.113-15.642 1.262c-5.396 8.377-25.493 39.857-29.544 46.909-8.421 14.659-2.224 20.713.232 22.438 4.935 3.465 12.843 3.078 21.25-9.394 12.591-18.679 29.665-46.232 29.665-46.232s6.263-8.373-5.961-14.983Zm0 0 11.424-17.943m56.554-88.9-38.292 60.307m-17.372 27.704 11.29-17.828m-11.29 17.828-18.827-36.684s34.348-53.29 75.978-54.244" style="fill:none;stroke:#251ac7;stroke-width:12px"/></svg>