<?xml version="1.0" standalone="no"?>
<!DOCTYPE svg PUBLIC "-//W3C//DTD SVG 20010904//EN"
 "http://www.w3.org/TR/2001/REC-SVG-20010904/DTD/svg10.dtd">
<svg version="1.0" xmlns="http://www.w3.org/2000/svg"
 width="700.000000pt" height="700.000000pt" viewBox="0 0 700.000000 700.000000"
 preserveAspectRatio="xMidYMid meet">
<metadata>
Created by potrace 1.14, written by Peter Selinger 2001-2017
</metadata>
<g transform="translate(0.000000,700.000000) scale(0.100000,-0.100000)"
fill="#000000" stroke="none">
<path d="M3302 6440 c-12 -5 -30 -25 -39 -45 -16 -33 -16 -38 0 -88 35 -110
19 -197 -74 -415 -88 -203 -108 -335 -74 -481 32 -134 145 -295 240 -341 40
-20 46 -20 80 -6 45 19 70 71 55 112 -6 15 -37 53 -70 84 -76 73 -119 160
-127 257 -7 87 10 154 83 324 69 164 94 258 94 364 0 180 -67 275 -168 235z"/>
<path d="M4063 6440 c-12 -5 -29 -20 -38 -34 -18 -27 -17 -57 6 -151 17 -71
-5 -169 -74 -331 -83 -194 -101 -262 -101 -374 0 -187 82 -353 228 -465 74
-56 167 -18 166 68 -1 32 -18 56 -78 111 -94 88 -141 222 -120 351 5 33 40
134 78 225 111 268 126 396 63 543 -24 56 -76 79 -130 57z"/>
<path d="M4789 6421 c-33 -33 -36 -59 -14 -121 19 -53 19 -139 1 -205 -7 -27
-41 -116 -74 -196 -34 -81 -68 -175 -77 -210 -19 -82 -19 -196 0 -278 32 -132
146 -296 239 -341 41 -20 47 -20 81 -6 40 17 68 67 58 107 -3 13 -34 52 -69
86 -78 75 -122 160 -130 254 -9 88 6 147 77 317 33 80 69 179 80 220 41 149
18 330 -48 382 -38 30 -88 26 -124 -9z"/>
<path d="M2383 4756 l-28 -24 -5 -269 -5 -268 -75 -7 c-286 -29 -568 -160
-784 -367 -435 -418 -546 -1046 -277 -1579 208 -412 630 -703 1074 -740 l80
-7 14 -55 c31 -124 133 -284 232 -368 78 -66 172 -119 274 -155 l92 -32 1160
0 c1303 0 1205 -5 1371 76 155 76 271 194 349 354 87 180 80 26 80 1811 0
1705 3 1618 -52 1643 -17 8 -506 11 -1748 11 l-1724 0 -28 -24z m3357 -1677
c0 -1678 4 -1565 -67 -1701 -65 -124 -196 -234 -332 -281 l-66 -22 -1097 -3
c-1219 -3 -1177 -5 -1316 64 -132 64 -231 178 -291 332 l-26 67 -3 1528 -2
1527 1600 0 1600 0 0 -1511z m-3390 -234 l0 -1155 -24 0 c-48 0 -194 30 -271
56 -406 136 -708 487 -781 909 -24 133 -15 348 19 478 112 424 461 756 889
846 51 11 110 20 131 20 l37 1 0 -1155z"/>
<path d="M4845 4325 c-311 -58 -642 -304 -939 -698 -36 -48 -68 -98 -72 -111
-4 -18 20 -75 94 -223 56 -109 113 -220 128 -248 l27 -50 -52 -81 -51 -81 -68
5 c-75 5 -126 -13 -169 -60 -23 -25 -299 -456 -405 -633 -124 -207 -139 -332
-51 -434 99 -116 254 -110 378 13 63 64 472 689 511 782 25 60 15 143 -24 198
l-32 44 51 77 51 78 271 -7 c211 -5 278 -4 297 6 69 35 263 551 317 843 21
114 23 329 4 405 -20 78 -46 136 -75 165 -29 29 -76 32 -191 10z m-269 -556
c-141 -221 -236 -382 -236 -396 0 -13 4 -32 9 -41 7 -14 4 -17 -20 -18 -38 -1
-50 -13 -96 -89 -21 -36 -41 -65 -45 -65 -3 0 -45 75 -92 167 l-86 166 57 76
c31 42 123 141 203 221 144 145 261 235 380 295 57 29 152 65 158 59 2 -1
-102 -170 -232 -375z m381 154 c-9 -208 -74 -450 -198 -740 l-52 -123 -188 0
c-104 0 -189 2 -189 5 0 3 20 37 45 77 47 75 52 96 35 129 -9 16 -7 19 14 19
14 0 36 10 49 23 13 12 127 185 253 384 126 200 231 363 233 363 2 0 1 -62 -2
-137z m-1024 -1256 c41 -18 97 -65 97 -82 0 -15 -51 -99 -274 -445 -165 -256
-243 -350 -291 -350 -44 0 -65 25 -65 81 0 61 24 107 222 419 242 383 247 390
263 390 9 0 30 -6 48 -13z"/>
</g>
</svg>
